<?xml version="1.0"?><svg width="1394.0241" height="362.39917" xmlns="http://www.w3.org/2000/svg">
 <title>Boat without mast</title>

 <metadata id="metadata3368">image/svg+xml</metadata>
 <g>
  <title>Layer 1</title>
  <path fill="#4b3c21" fill-rule="evenodd" stroke="#000000" stroke-linecap="round" stroke-linejoin="round" marker-start="none" marker-mid="none" marker-end="none" stroke-miterlimit="4" stroke-dashoffset="0" d="m335.077606,258.608459l22.933716,3.480103l-8.879181,43.788696l-14.054535,-47.268799z" id="rect3308"/>
  <path fill="#b28f53" fill-rule="evenodd" stroke="#000000" stroke-linecap="round" stroke-linejoin="round" marker-start="none" marker-mid="none" marker-end="none" stroke-miterlimit="4" stroke-dashoffset="0" d="m390.786865,288.288544c-36.392242,-18.309601 -64.583374,-34.431503 -116.977722,-46.273956c-144.769867,-9.028107 -207.798569,3.904297 -270.406577,16.148254c66.142409,58.284698 212.64321,54.302277 387.384299,30.125702z" id="path2181"/>
  <path fill="#4b3c21" fill-rule="evenodd" stroke="#000000" stroke-linecap="round" stroke-linejoin="round" marker-start="none" marker-mid="none" marker-end="none" stroke-miterlimit="4" stroke-dashoffset="0" d="m375.510345,285.032104c-33.807404,-17.009125 -54.007477,-28.155609 -102.680359,-39.156921c-123.616592,-7.868164 -200.738289,2.941666 -258.118999,13.198792c86.167422,31.316772 265.016429,30.850739 360.799357,25.95813z" id="path2183"/>
  <path fill="#67522e" fill-rule="evenodd" stroke="#000000" stroke-linecap="round" stroke-linejoin="round" marker-start="none" marker-mid="none" marker-end="none" stroke-miterlimit="4" stroke-dashoffset="0" d="m160.7957,261.175293l0.734955,5.552277l45.770645,19.539185l12.089539,0.393127" id="path2204"/>
  <path fill="#7d6438" fill-rule="evenodd" stroke="#000000" stroke-linecap="round" stroke-linejoin="round" marker-start="none" marker-mid="none" marker-end="none" stroke-miterlimit="4" stroke-dashoffset="0" d="m264.832825,287.509888l-51.276688,-23.544312l-52.903931,-2.723999l58.795792,25.443481c14.664993,0.577606 30.017242,0.704163 45.384827,0.824829z" id="path1580"/>
  <path fill="#7d6438" fill-rule="evenodd" stroke="#000000" stroke-linecap="round" stroke-linejoin="round" stroke-miterlimit="4" d="m49.491829,316.187805c3.886604,0.799469 301.518425,16.353577 309.499779,15.90036c-8.509216,8.736969 -20.136536,19.98288 -29.033417,21.514526c-28.633911,4.929535 -120.62413,10.977295 -221.594002,-3.471588c-25.187759,-10.956635 -44.246277,-22.653992 -58.87236,-33.943298z" id="path2200"/>
  <path fill="#745c33" fill-rule="evenodd" stroke="#000000" stroke-linecap="round" stroke-linejoin="round" stroke-miterlimit="4" d="m20.281359,282.477661c5.670588,3.593262 354.426497,26.223969 356.229445,26.031097c-5.425354,7.811005 -10.88559,16.70755 -17.905457,23.915283c-21.816345,6.146606 -259.491798,13.658844 -309.113518,-16.236237c-13.493031,-10.414734 -22.400799,-24.991333 -29.21047,-33.710144z" id="path1584"/>
  <path fill="#6e5831" fill-rule="evenodd" stroke="#000000" stroke-linecap="round" stroke-linejoin="round" stroke-miterlimit="4" d="m3.219263,258.144958c72.217818,28.870728 217.186117,40.013702 387.536017,30.351379c0,0 -5.033051,7.177002 -14.197052,20.370636c-56.606415,17.901154 -334.305382,1.121796 -355.795834,-26.008789c-13.608412,-17.423676 -17.379029,-25.433502 -17.543131,-24.713226z" id="path1306"/>
  <path fill="#43341d" fill-rule="evenodd" stroke="#000000" stroke-linecap="round" stroke-linejoin="round" marker-start="none" marker-mid="none" marker-end="none" stroke-miterlimit="4" stroke-dashoffset="0" d="m273.11908,246.00415c0,0 4.807129,21.740112 -7.925781,41.352173c51.312531,1.132599 109.926788,-2.390137 109.926788,-2.390137c-30.259521,-16.159302 -66.083313,-31.937759 -102.001007,-38.962036z" id="path2193"/>
  <g fill="#4b3c21" stroke="#000000" stroke-width="0.731654" stroke-miterlimit="4" id="g3303" transform="matrix(0.989341, 0.370279, -0.231129, 1.52313, 356.461, 404.903)">
   <rect fill="#4b3c21" fill-rule="evenodd" stroke="#000000" stroke-width="0.758583" stroke-linecap="round" stroke-linejoin="round" stroke-miterlimit="4" stroke-dashoffset="0" transform="matrix(0.969613, -0.244644, -0.128168, 0.991752, 0, 0)" y="-102.782952" x="-78.215601" height="4.901706" width="45.528324" id="rect3294"/>
   <path fill="#4b3c21" fill-rule="evenodd" stroke="#000000" stroke-width="0.758583" stroke-linecap="round" stroke-linejoin="round" marker-start="none" marker-mid="none" marker-end="none" stroke-miterlimit="4" stroke-dashoffset="0" id="rect3298" d="m-62.665386,-82.800224l44.144857,-11.138229l-3.853685,-0.33741l-45.470665,10.696281l5.179493,0.779358z"/>
   <path fill="#4b3c21" fill-rule="evenodd" stroke="#000000" stroke-width="0.758583" stroke-linecap="round" stroke-linejoin="round" marker-start="none" marker-mid="none" marker-end="none" stroke-miterlimit="4" stroke-dashoffset="0" id="path3301" d="m-62.665386,-82.800224l-0.649109,4.866379l-4.264019,-0.842499l-0.266365,-4.803238l5.179493,0.779358z"/>
  </g>
 </g>
</svg>