<?xml version="1.0" encoding="UTF-8"?>
<svg xmlns="http://www.w3.org/2000/svg" xmlns:xlink="http://www.w3.org/1999/xlink" width="396pt" height="103pt" viewBox="0 0 396 103" version="1.1">
<g id="surface1">
<path style="fill-rule:evenodd;fill:rgb(29.411765%,23.529412%,12.941176%);fill-opacity:1;stroke-width:1;stroke-linecap:round;stroke-linejoin:round;stroke:rgb(0%,0%,0%);stroke-opacity:1;stroke-miterlimit:4;" d="M 335.07923 258.608692 L 358.015546 262.082069 L 349.132536 305.87682 Z M 335.07923 258.608692 " transform="matrix(0.284075,0,0,0.28453,0,0)"/>
<path style="fill-rule:evenodd;fill:rgb(69.803922%,56.078431%,32.54902%);fill-opacity:1;stroke-width:1;stroke-linecap:round;stroke-linejoin:round;stroke:rgb(0%,0%,0%);stroke-opacity:1;stroke-miterlimit:4;" d="M 390.783677 288.290276 C 354.399089 269.976107 326.209971 253.858541 273.805713 242.010619 C 129.037405 232.990822 66.003788 245.923316 3.396445 258.169372 C 69.551491 316.447967 216.052399 312.466626 390.783677 288.290276 Z M 390.783677 288.290276 " transform="matrix(0.284075,0,0,0.28453,0,0)"/>
<path style="fill-rule:evenodd;fill:rgb(29.411765%,23.529412%,12.941176%);fill-opacity:1;stroke-width:1;stroke-linecap:round;stroke-linejoin:round;stroke:rgb(0%,0%,0%);stroke-opacity:1;stroke-miterlimit:4;" d="M 375.50655 285.036559 C 341.70711 268.026623 321.507201 256.878868 272.829407 245.868401 C 149.209813 238.00182 72.095387 248.820085 14.713344 259.07547 C 100.875789 290.390777 279.732304 289.923999 375.50655 285.036559 Z M 375.50655 285.036559 " transform="matrix(0.284075,0,0,0.28453,0,0)"/>
<path style="fill-rule:evenodd;fill:rgb(40.392157%,32.156863%,18.039216%);fill-opacity:1;stroke-width:1;stroke-linecap:round;stroke-linejoin:round;stroke:rgb(0%,0%,0%);stroke-opacity:1;stroke-miterlimit:4;" d="M 160.801728 261.175971 L 161.53052 266.722391 L 207.306897 286.272148 L 219.393841 286.656553 " transform="matrix(0.284075,0,0,0.28453,0,0)"/>
<path style="fill-rule:evenodd;fill:rgb(49.019608%,39.215686%,21.960784%);fill-opacity:1;stroke-width:1;stroke-linecap:round;stroke-linejoin:round;stroke:rgb(0%,0%,0%);stroke-opacity:1;stroke-miterlimit:4;" d="M 264.826448 287.507737 L 213.549755 263.96291 L 160.65047 261.244615 L 219.448844 286.684011 C 234.107185 287.260619 249.466817 287.384178 264.826448 287.507737 Z M 264.826448 287.507737 " transform="matrix(0.284075,0,0,0.28453,0,0)"/>
<path style="fill-rule:evenodd;fill:rgb(49.019608%,39.215686%,21.960784%);fill-opacity:1;stroke-width:1;stroke-linecap:round;stroke-linejoin:round;stroke:rgb(0%,0%,0%);stroke-opacity:1;stroke-miterlimit:4;" d="M 49.48909 316.187121 C 53.380563 316.983389 351.016394 332.538076 358.991852 332.085027 C 350.480114 340.830249 338.860697 352.074105 329.963936 353.597998 C 301.321042 358.526623 209.328263 364.581007 108.369969 350.124621 C 83.178524 339.169069 64.11993 327.472163 49.48909 316.187121 Z M 49.48909 316.187121 " transform="matrix(0.284075,0,0,0.28453,0,0)"/>
<path style="fill-rule:evenodd;fill:rgb(45.490196%,36.078431%,20%);fill-opacity:1;stroke-width:1;stroke-linecap:round;stroke-linejoin:round;stroke:rgb(0%,0%,0%);stroke-opacity:1;stroke-miterlimit:4;" d="M 20.282414 282.48301 C 25.947739 286.066217 374.709004 308.704945 376.510357 308.512743 C 371.078796 316.324408 365.619732 325.220646 358.60683 332.428246 C 336.784328 338.565003 99.115688 346.088365 49.48909 316.187121 C 35.999566 305.76699 27.089055 291.200774 20.282414 282.48301 Z M 20.282414 282.48301 " transform="matrix(0.284075,0,0,0.28453,0,0)"/>
<path style="fill-rule:evenodd;fill:rgb(43.137255%,34.509804%,19.215686%);fill-opacity:1;stroke-width:1;stroke-linecap:round;stroke-linejoin:round;stroke:rgb(0%,0%,0%);stroke-opacity:1;stroke-miterlimit:4;" d="M 3.217685 258.141914 C 75.436829 287.013501 220.411399 298.161256 390.756175 288.496208 C 390.756175 288.496208 385.723386 295.67635 376.55161 308.869691 C 319.953362 326.771996 42.256175 309.995449 20.763692 282.853686 C 7.15041 265.431887 3.382694 257.428019 3.217685 258.141914 Z M 3.217685 258.141914 " transform="matrix(0.284075,0,0,0.28453,0,0)"/>
<path style="fill-rule:evenodd;fill:rgb(26.27451%,20.392157%,11.372549%);fill-opacity:1;stroke-width:1;stroke-linecap:round;stroke-linejoin:round;stroke:rgb(0%,0%,0%);stroke-opacity:1;stroke-miterlimit:4;" d="M 273.118174 246.005689 C 273.118174 246.005689 277.93095 267.738319 265.197719 287.35672 C 316.501914 288.482479 375.121528 284.967916 375.121528 284.967916 C 344.856041 268.809163 309.035235 253.034815 273.118174 246.005689 Z M 273.118174 246.005689 " transform="matrix(0.284075,0,0,0.28453,0,0)"/>
<path style="fill-rule:evenodd;fill:rgb(29.411765%,23.529412%,12.941176%);fill-opacity:1;stroke-width:0.758583;stroke-linecap:round;stroke-linejoin:round;stroke:rgb(0%,0%,0%);stroke-opacity:1;stroke-miterlimit:4;" d="M -78.21511 -102.779846 L -32.691202 -102.77902 L -32.693687 -97.880972 L -78.217596 -97.881797 Z M -78.21511 -102.779846 " transform="matrix(0.288569,-0.00386884,-0.101138,0.416299,101.261518,115.207207)"/>
<path style="fill-rule:evenodd;fill:rgb(29.411765%,23.529412%,12.941176%);fill-opacity:1;stroke-width:0.758583;stroke-linecap:round;stroke-linejoin:round;stroke:rgb(0%,0%,0%);stroke-opacity:1;stroke-miterlimit:4;" d="M -62.6653 -82.79726 L -18.524833 -93.933593 L -22.371965 -94.278259 L -67.850335 -83.573813 Z M -62.6653 -82.79726 " transform="matrix(0.281047,0.105356,-0.0656579,0.433377,101.261518,115.207207)"/>
<path style="fill-rule:evenodd;fill:rgb(29.411765%,23.529412%,12.941176%);fill-opacity:1;stroke-width:0.758583;stroke-linecap:round;stroke-linejoin:round;stroke:rgb(0%,0%,0%);stroke-opacity:1;stroke-miterlimit:4;" d="M -62.6653 -82.79726 L -63.308635 -77.935805 L -67.576621 -78.773053 L -67.850335 -83.573813 Z M -62.6653 -82.79726 " transform="matrix(0.281047,0.105356,-0.0656579,0.433377,101.261518,115.207207)"/>
</g>
</svg>
